<svg xmlns="http://www.w3.org/2000/svg" width="100" height="100" shape-rendering="geometricPrecision" image-rendering="optimizeQuality" fill-rule="evenodd" xmlns:v="https://vecta.io/nano"><path d="M20.5 7.5a1682.43 1682.43 0 0 1 58 .5c4.833 2.167 8.333 5.667 10.5 10.5a1024.2 1024.2 0 0 1 0 64c-2.167 4.833-5.667 8.333-10.5 10.5a841.21 841.21 0 0 1-58 0c-4.833-2.167-8.333-5.667-10.5-10.5-.667-21.333-.667-42.667 0-64 2.357-4.854 5.857-8.521 10.5-11zm34 21h3c.381 9.068-.119 18.068-1.5 27-6.51 5.832-12.01 4.998-16.5-2.5 2.612-.741 4.279.259 5 3 4.271 1.323 7.438.156 9.5-3.5.5-7.993.666-15.993.5-24zm-40 47c1.808 1.407 3.808 2.574 6 3.5a841.21 841.21 0 0 0 58 0c2.192-.926 4.192-2.093 6-3.5.223 6.061-2.444 10.228-8 12.5a199.87 199.87 0 0 1-27 1.5 199.87 199.87 0 0 1-27-1.5c-5.556-2.272-8.223-6.439-8-12.5z" opacity=".975"/></svg>